# xmcd
#
# Track frame offsets:
# 150
# 16073
# 44673
# 65404
# 99920
#
# Disc length: 1810 seconds
#
# Revision: 1
# Processed by: cddbd v1.5.2PL0 Copyright (c) Steve Scherf et al.
# Submitted via: CedeCatalogueitor 2.6.0.6 http://personales.ya.com/cdcatalogueitor
#
DISCID=36071005
DTITLE=Human - Pacey Singer
DYEAR=1900
DGENRE=
TTITLE0=Radio Edit
TTITLE1=Ocelot Rmx
TTITLE2=James Yuill Rmx
TTITLE3=Anti Chris Rmx
TTITLE4=Remote Disco Mrx
EXTD=
EXTT0=
EXTT1=
EXTT2=
EXTT3=
EXTT4=
PLAYORDER=
